Coordinates
nRows=204
nColumns=2
inDegrees=yes
endheader
time	ankle_angle_r	
3.12702	  9.162528	
3.16028	  9.151175	
3.19355	  9.105302	
3.22681	  9.166240	
3.26008	  9.159662	
3.29335	  9.131043	
3.32661	  9.191885	
3.35988	  9.155273	
3.39315	  9.150497	
3.42641	  9.165660	
3.45968	  9.155273	
3.49294	  9.170594	
3.52621	  9.165370	
3.55948	  9.140015	
3.59274	  9.170532	
3.62601	  9.195598	
3.65927	  9.169144	
3.69254	  9.180145	
3.72581	  9.164789	
3.75907	  9.170532	
3.79234	  9.179855	
3.8256	  9.210276	
3.85887	  9.164403	
3.89214	  9.207275	
3.9254	  9.201050	
3.95867	  9.179372	
3.99194	  9.207566	
4.0252	  9.201050	
4.05847	  9.146724	
4.09173	  9.185791	
4.125	  9.178888	
4.15827	  9.170532	
4.19153	  9.154207	
4.2248	  9.171406	
4.25806	  9.170532	
4.29133	  9.201050	
4.3246	  9.208532	
4.35786	  9.201050	
4.39113	  9.170439	
4.4244	  9.185791	
4.45766	  9.178883	
4.49093	  9.208343	
4.52419	  9.224372	
4.55746	  9.140015	
4.59073	  9.185791	
4.62399	  9.224662	
4.65726	  9.153633	
4.69052	  9.168698	
4.72379	  9.187819	
4.75706	  9.100758	
4.79032	  9.188205	
4.82359	  9.179465	
4.85685	  9.155273	
4.89012	  9.185791	
4.92339	  9.118720	
4.95665	  9.149335	
4.98992	  9.176374	
5.02319	  9.143783	
5.05645	  9.082941	
5.08972	  9.140015	
5.12298	  9.105149	
5.15625	  9.104138	
5.18952	  9.160008	
5.22278	  9.150108	
5.25605	  9.140015	
5.28931	  9.150301	
5.32258	  9.145523	
5.35585	  9.109497	
5.38911	  9.185791	
5.42238	  9.106415	
5.45565	  9.129245	
5.48891	  9.109497	
5.52218	  9.120461	
5.55544	  9.124756	
5.58871	  9.090137	
5.62198	  9.113503	
5.65524	  9.128664	
5.68851	  9.159085	
5.72177	  9.078979	
5.75504	  9.121138	
5.78831	  9.170532	
5.82157	  9.067145	
5.85484	  9.048462	
5.8881	  9.158505	
5.92137	  9.143149	
5.95464	  9.112535	
5.9879	  9.127697	
6.02117	  9.121911	
6.05444	  9.122007	
6.0877	  9.180488	
6.12097	  9.155273	
6.15423	  9.109497	
6.1875	  9.111858	
6.22077	  9.124756	
6.25403	  9.111665	
6.2873	  9.159416	
6.32056	  9.168557	
6.35383	  9.140015	
6.3871	  9.128319	
6.42036	  9.141700	
6.45363	  9.131108	
6.4869	  9.158256	
6.52016	  9.141409	
6.55343	  9.157869	
6.58669	  9.184589	
6.61996	  9.170532	
6.65323	  9.157290	
6.68649	  9.201961	
6.71976	  9.170532	
6.75302	  9.185073	
6.78629	  9.201050	
6.81956	  9.125280	
6.85282	  9.201478	
6.88609	  9.171194	
6.91935	  9.155039	
6.95262	  9.155411	
6.98589	  9.170573	
7.01915	  9.155273	
7.05242	  9.216156	
7.08569	  9.185293	
7.11895	  9.155273	
7.15222	  9.185349	
7.18548	  9.185791	
7.21875	  9.155910	
7.25202	  9.201050	
7.28528	  9.169703	
7.31855	  9.153421	
7.35181	  9.202072	
7.38508	  9.170532	
7.41835	  9.123540	
7.45161	  9.153961	
7.48488	  9.214899	
7.51815	  9.158285	
7.55141	  9.158479	
7.58468	  9.229868	
7.61794	  9.140015	
7.65121	  9.170532	
7.68448	  9.201050	
7.71774	  9.142100	
7.75101	  9.190157	
7.78427	  9.201050	
7.81754	  9.157650	
7.85081	  9.175478	
7.88407	  9.173101	
7.91734	  9.173199	
7.9506	  9.201050	
7.98387	  9.185791	
8.01714	  9.127712	
8.0504	  9.225462	
8.08367	  9.161572	
8.11694	  9.158520	
8.1502	  9.161960	
8.18347	  9.160213	
8.21673	  9.128292	
8.25	  9.193057	
8.28327	  9.159003	
8.31653	  9.140015	
8.3498	  9.177945	
8.38306	  9.155273	
8.41633	  9.151157	
8.4496	  9.102665	
8.48286	  9.155273	
8.51613	  9.144422	
8.5494	  9.155273	
8.58266	  9.140015	
8.61593	  9.144711	
8.64919	  9.140015	
8.68246	  9.129645	
8.71573	  9.089252	
8.74899	  9.185791	
8.78226	  9.134834	
8.81552	  9.134738	
8.84879	  9.159785	
8.88206	  9.130226	
8.91532	  9.094238	
8.94859	  9.159205	
8.98185	  9.118996	
9.01512	  9.149417	
9.04839	  9.157875	
9.08165	  9.155273	
9.11492	  9.140015	
9.14819	  9.170532	
9.18145	  9.155273	
9.21472	  9.146452	
9.24798	  9.177066	
9.28125	  9.161903	
9.31452	  9.140015	
9.34778	  9.178967	
9.38105	  9.177453	
9.41431	  9.140015	
9.44758	  9.177646	
9.48085	  9.170532	
9.51411	  9.140015	
9.54738	  9.193646	
9.58065	  9.162774	
9.61391	  9.155273	
9.64718	  9.170403	
9.68044	  9.140015	
9.71371	  9.170016	
9.74698	  9.201050	
9.78024	  9.140015	
9.81351	  9.177613	
9.84677	  9.170532	
9.88004	  9.155273	
